<?xml version="1.0" standalone="no"?>
<!DOCTYPE svg PUBLIC "-//W3C//DTD SVG 20010904//EN"
 "http://www.w3.org/TR/2001/REC-SVG-20010904/DTD/svg10.dtd">
<svg version="1.0" xmlns="http://www.w3.org/2000/svg"
 width="398.000000pt" height="174.000000pt" viewBox="0 0 398.000000 174.000000"
 preserveAspectRatio="xMidYMid meet">

<g transform="translate(0.000000,174.000000) scale(0.100000,-0.100000)"
fill="#000000" stroke="none">
<path d="M0 1013 c0 -712 0 -728 20 -769 28 -58 90 -126 147 -162 104 -66 -14
-62 1813 -62 1487 0 1662 2 1711 16 134 39 234 140 273 275 15 50 16 132 14
730 -2 371 -7 680 -11 687 -7 9 -415 12 -1988 12 l-1979 0 0 -727z m1738 148
c21 -13 10 -46 -16 -49 -27 -4 -40 22 -22 43 14 17 20 18 38 6z m962 -6 c18
-21 5 -47 -22 -43 -26 3 -37 36 -16 49 18 12 24 11 38 -6z m448 6 c21 -13 10
-46 -16 -49 -27 -4 -40 22 -22 43 14 17 20 18 38 6z m-2195 -20 c33 -13 57
-39 57 -62 0 -26 -41 -25 -58 2 -16 25 -69 23 -86 -3 -15 -24 0 -36 64 -53 65
-17 90 -39 90 -79 0 -44 -24 -74 -71 -86 -66 -18 -149 16 -149 62 0 25 34 23
70 -4 25 -18 35 -20 58 -12 16 6 28 18 30 31 3 19 -5 24 -55 38 -62 18 -103
52 -103 86 0 63 83 106 153 80z m697 -136 l0 -145 -30 0 c-21 0 -30 5 -30 17
0 15 -1 15 -18 0 -28 -25 -78 -21 -107 8 -33 32 -36 119 -5 158 33 41 96 43
122 3 4 -6 8 15 8 47 0 57 0 57 30 57 l30 0 0 -145z m680 110 c15 -15 30 -36
33 -46 4 -15 0 -19 -24 -19 -18 0 -32 7 -39 19 -23 43 -91 38 -115 -9 -37 -71
-1 -154 66 -152 56 1 85 62 29 62 -23 0 -30 4 -30 20 0 18 7 20 61 20 l62 0
-6 -46 c-9 -79 -77 -126 -154 -104 -51 14 -70 30 -88 73 -47 113 23 225 133
214 30 -3 53 -13 72 -32z m140 -16 c0 -50 0 -50 22 -35 30 21 61 20 89 -3 20
-16 23 -29 27 -110 l4 -91 -30 0 -31 0 -3 76 c-2 60 -7 79 -20 88 -13 8 -23 8
-35 0 -14 -9 -19 -28 -21 -88 l-3 -76 -29 0 -30 0 0 145 0 145 30 0 c29 0 30
-1 30 -51z m340 2 l0 -49 29 14 c57 28 109 -5 118 -75 7 -50 -2 -86 -27 -111
-24 -24 -82 -27 -104 -4 -15 14 -16 14 -16 0 0 -11 -9 -16 -30 -16 l-30 0 0
145 0 145 30 0 c29 0 30 -1 30 -49z m250 -96 l0 -145 -30 0 -30 0 0 145 0 145
30 0 30 0 0 -145z m-1930 95 c0 -23 4 -30 20 -30 13 0 20 -7 20 -20 0 -13 -7
-20 -20 -20 -18 0 -20 -7 -20 -59 0 -51 3 -61 20 -66 11 -3 20 -15 20 -26 0
-14 -7 -19 -28 -19 -51 0 -66 20 -70 99 -3 52 -8 71 -18 71 -8 0 -14 9 -14 20
0 11 7 20 15 20 9 0 15 9 15 23 0 13 3 27 7 30 3 4 17 7 30 7 19 0 23 -5 23
-30z m810 -35 c37 -19 50 -43 50 -95 0 -75 -31 -109 -100 -110 -57 0 -87 20
-100 68 -28 105 59 184 150 137z m-678 -71 c2 -52 8 -78 18 -84 20 -13 23 -12
45 4 15 11 20 30 23 85 4 67 6 71 28 71 24 0 24 -1 24 -105 l0 -105 -25 0
c-17 0 -25 6 -25 17 0 15 -1 15 -18 0 -24 -22 -80 -22 -104 0 -15 13 -18 32
-18 105 0 86 0 88 24 88 23 0 24 -4 28 -76z m488 -29 l0 -105 -30 0 -30 0 0
105 0 105 30 0 30 0 0 -105z m960 0 l0 -105 -30 0 -30 0 0 105 0 105 30 0 30
0 0 -105z m450 0 l0 -105 -30 0 -30 0 0 105 0 105 30 0 30 0 0 -105z"/>
<path d="M1518 1018 c-32 -25 -23 -102 13 -111 47 -13 80 71 41 106 -22 20
-33 21 -54 5z"/>
<path d="M2826 1014 c-24 -24 -20 -80 6 -98 31 -22 62 -1 66 46 5 56 -38 87
-72 52z"/>
<path d="M1851 1002 c-23 -56 9 -114 53 -94 48 22 37 114 -15 120 -21 2 -29
-3 -38 -26z"/>
</g>
</svg>
